<svg preserveAspectRatio="none" overflow="visible" style="display: block;" width="44" height="44" viewBox="0 0 44 44" fill="none" xmlns="http://www.w3.org/2000/svg">
<g id="Frame" filter="url(#filter0_ii_0_1)">
<g clip-path="url(#clip0_0_1)">
<rect width="44" height="44" rx="8.97959" fill="white"/>
<g id="Ellipse 11780" filter="url(#filter1_f_0_1)">
<ellipse cx="15.9388" cy="29.6338" rx="6.5102" ry="6.28571" fill="#FCBA3F"/>
</g>
<g id="Ellipse 11781" filter="url(#filter2_f_0_1)">
<ellipse cx="31.2035" cy="13.0204" rx="6.5102" ry="6.28571" fill="#FCBA3F"/>
</g>
<svg height="24" width="24" x="9.55" y="9.55" viewBox="0 0 19.5 19.5">
<path fill-rule="evenodd" clip-rule="evenodd" d="M9.75 0C4.36522 0 0 4.36522 0 9.75C0 15.1348 4.36522 19.5 9.75 19.5C15.1348 19.5 19.5 15.1348 19.5 9.75C19.5 4.36522 15.1348 0 9.75 0ZM14.0303 10.2803C14.171 10.1397 14.25 9.94891 14.25 9.75C14.25 9.55109 14.171 9.36032 14.0303 9.21967L11.0303 6.21967C10.7374 5.92678 10.2626 5.92678 9.96967 6.21967C9.67678 6.51256 9.67678 6.98744 9.96967 7.28033L11.6893 9L6 9C5.58579 9 5.25 9.33579 5.25 9.75C5.25 10.1642 5.58579 10.5 6 10.5L11.6893 10.5L9.96967 12.2197C9.67678 12.5126 9.67678 12.9874 9.96967 13.2803C10.2626 13.5732 10.7374 13.5732 11.0303 13.2803L14.0303 10.2803Z" fill="#FCBA3F"/>
</svg>
</g>
<rect x="0.22449" y="0.22449" width="43.551" height="43.551" rx="8.7551" stroke="black" stroke-opacity="0.05" stroke-width="0.44898"/>
</g>
<defs>
<filter id="filter0_ii_0_1" x="0" y="0" width="44" height="44" filterUnits="userSpaceOnUse" color-interpolation-filters="sRGB">
<feFlood flood-opacity="0" result="BackgroundImageFix"/>
<feBlend mode="normal" in="SourceGraphic" in2="BackgroundImageFix" result="shape"/>
<feColorMatrix in="SourceAlpha" type="matrix" values="0 0 0 0 0 0 0 0 0 0 0 0 0 0 0 0 0 0 127 0" result="hardAlpha"/>
<feOffset/>
<feGaussianBlur stdDeviation="1.57143"/>
<feComposite in2="hardAlpha" operator="arithmetic" k2="-1" k3="1"/>
<feColorMatrix type="matrix" values="0 0 0 0 1 0 0 0 0 1 0 0 0 0 1 0 0 0 1 0"/>
<feBlend mode="normal" in2="shape" result="effect1_innerShadow_0_1"/>
<feColorMatrix in="SourceAlpha" type="matrix" values="0 0 0 0 0 0 0 0 0 0 0 0 0 0 0 0 0 0 127 0" result="hardAlpha"/>
<feOffset/>
<feGaussianBlur stdDeviation="1.12245"/>
<feComposite in2="hardAlpha" operator="arithmetic" k2="-1" k3="1"/>
<feColorMatrix type="matrix" values="0 0 0 0 1 0 0 0 0 1 0 0 0 0 1 0 0 0 1 0"/>
<feBlend mode="normal" in2="effect1_innerShadow_0_1" result="effect2_innerShadow_0_1"/>
</filter>
<filter id="filter1_f_0_1" x="-17.5102" y="-3.59065" width="66.898" height="66.449" filterUnits="userSpaceOnUse" color-interpolation-filters="sRGB">
<feFlood flood-opacity="0" result="BackgroundImageFix"/>
<feBlend mode="normal" in="SourceGraphic" in2="BackgroundImageFix" result="shape"/>
<feGaussianBlur stdDeviation="13.4694" result="effect1_foregroundBlur_0_1"/>
</filter>
<filter id="filter2_f_0_1" x="2.24431" y="-15.7143" width="57.9184" height="57.4694" filterUnits="userSpaceOnUse" color-interpolation-filters="sRGB">
<feFlood flood-opacity="0" result="BackgroundImageFix"/>
<feBlend mode="normal" in="SourceGraphic" in2="BackgroundImageFix" result="shape"/>
<feGaussianBlur stdDeviation="11.2245" result="effect1_foregroundBlur_0_1"/>
</filter>
<clipPath id="clip0_0_1">
<rect width="44" height="44" rx="8.97959" fill="white"/>
</clipPath>
</defs>
</svg>
