<svg preserveAspectRatio="none" overflow="visible" style="display: block;" width="44" height="44" viewBox="0 0 44 44" fill="none" xmlns="http://www.w3.org/2000/svg">
<g id="Frame 2147225448" filter="url(#filter0_ii_0_phone)">
<g clip-path="url(#clip0_0_phone)">
<rect width="44" height="44" rx="8.97959" fill="white"/>
<g id="Ellipse 11780" filter="url(#filter1_f_0_phone)">
<ellipse cx="15.9388" cy="29.6338" rx="6.5102" ry="6.28571" fill="#3F87FC"/>
</g>
<g id="Ellipse 11781" filter="url(#filter2_f_0_phone)">
<ellipse cx="31.2035" cy="13.0204" rx="6.5102" ry="6.28571" fill="#3F87FC"/>
</g>
<g id="Grow Your Savings Icon">
<path d="M16.0429 13.3789C16.582 12.8398 17.418 12.8398 17.9571 13.3789L20.2071 15.6289C20.7462 16.168 20.7462 17.004 20.2071 17.5431L18.7803 18.9699C18.6714 19.0788 18.6465 19.2463 18.7197 19.3828C19.7859 21.3687 21.3813 22.9641 23.3672 24.0303C23.5037 24.1035 23.6712 24.0786 23.7801 23.9697L25.2069 22.5429C25.746 22.0038 26.582 22.0038 27.1211 22.5429L29.3711 24.7929C29.9102 25.332 29.9102 26.168 29.3711 26.7071L28.2461 27.8321C27.168 28.9102 25.5195 29.2078 24.0938 28.5547C20.5447 26.9292 17.5708 23.9553 15.9453 20.4062C15.2922 18.9805 15.5898 17.332 16.6679 16.2539L17.7929 15.1289L16.0429 13.3789Z" fill="#3F87FC"/>
</g>
</g>
<rect x="0.22449" y="0.22449" width="43.551" height="43.551" rx="8.7551" stroke="black" stroke-opacity="0.05" stroke-width="0.44898"/>
</g>
<defs>
<filter id="filter0_ii_0_phone" x="0" y="0" width="44" height="44" filterUnits="userSpaceOnUse" color-interpolation-filters="sRGB">
<feFlood flood-opacity="0" result="BackgroundImageFix"/>
<feBlend mode="normal" in="SourceGraphic" in2="BackgroundImageFix" result="shape"/>
<feColorMatrix in="SourceAlpha" type="matrix" values="0 0 0 0 0 0 0 0 0 0 0 0 0 0 0 0 0 0 127 0" result="hardAlpha"/>
<feOffset/>
<feGaussianBlur stdDeviation="1.57143"/>
<feComposite in2="hardAlpha" operator="arithmetic" k2="-1" k3="1"/>
<feColorMatrix type="matrix" values="0 0 0 0 0.247059 0 0 0 0 0.529412 0 0 0 0 0.988235 0 0 0 0.5 0"/>
<feBlend mode="normal" in2="shape" result="effect1_innerShadow_0_phone"/>
<feColorMatrix in="SourceAlpha" type="matrix" values="0 0 0 0 0 0 0 0 0 0 0 0 0 0 0 0 0 0 127 0" result="hardAlpha"/>
<feOffset/>
<feGaussianBlur stdDeviation="1.12245"/>
<feComposite in2="hardAlpha" operator="arithmetic" k2="-1" k3="1"/>
<feColorMatrix type="matrix" values="0 0 0 0 0.247059 0 0 0 0 0.529412 0 0 0 0 0.988235 0 0 0 0.5 0"/>
<feBlend mode="normal" in2="effect1_innerShadow_0_phone" result="effect2_innerShadow_0_phone"/>
</filter>
<filter id="filter1_f_0_phone" x="-17.5102" y="-3.59065" width="66.898" height="66.449" filterUnits="userSpaceOnUse" color-interpolation-filters="sRGB">
<feFlood flood-opacity="0" result="BackgroundImageFix"/>
<feBlend mode="normal" in="SourceGraphic" in2="BackgroundImageFix" result="shape"/>
<feGaussianBlur stdDeviation="13.4694" result="effect1_foregroundBlur_0_phone"/>
</filter>
<filter id="filter2_f_0_phone" x="2.24431" y="-15.7143" width="57.9184" height="57.4694" filterUnits="userSpaceOnUse" color-interpolation-filters="sRGB">
<feFlood flood-opacity="0" result="BackgroundImageFix"/>
<feBlend mode="normal" in="SourceGraphic" in2="BackgroundImageFix" result="shape"/>
<feGaussianBlur stdDeviation="11.2245" result="effect1_foregroundBlur_0_phone"/>
</filter>
<clipPath id="clip0_0_phone">
<rect width="44" height="44" rx="8.97959" fill="white"/>
</clipPath>
</defs>
</svg>
