<svg preserveAspectRatio="none" overflow="visible" style="display: block;" width="44" height="44" viewBox="0 0 44 44" fill="none" xmlns="http://www.w3.org/2000/svg">
<g id="Frame 2147225448" filter="url(#filter0_ii_0_1261)">
<g clip-path="url(#clip0_0_1261)">
<rect width="44" height="44" rx="8.97959" fill="white"/>
<g id="Ellipse 11780" filter="url(#filter1_f_0_1261)">
<ellipse cx="15.9388" cy="29.6338" rx="6.5102" ry="6.28571" fill="#CB8CFF"/>
</g>
<g id="Ellipse 11781" filter="url(#filter2_f_0_1261)">
<ellipse cx="31.2035" cy="13.0204" rx="6.5102" ry="6.28571" fill="#CB8CFF"/>
</g>
<g id="Grow Your Savings Icon">
<g id="Union">
<path d="M28.375 12.25C27.3395 12.25 26.5 13.0895 26.5 14.125V29.875C26.5 30.9105 27.3395 31.75 28.375 31.75H29.125C30.1605 31.75 31 30.9105 31 29.875V14.125C31 13.0895 30.1605 12.25 29.125 12.25H28.375Z" fill="#CB8CFF"/>
<path d="M19.75 18.625C19.75 17.5895 20.5895 16.75 21.625 16.75H22.375C23.4105 16.75 24.25 17.5895 24.25 18.625V29.875C24.25 30.9105 23.4105 31.75 22.375 31.75H21.625C20.5895 31.75 19.75 30.9105 19.75 29.875V18.625Z" fill="#CB8CFF"/>
<path d="M13 23.125C13 22.0895 13.8395 21.25 14.875 21.25H15.625C16.6605 21.25 17.5 22.0895 17.5 23.125V29.875C17.5 30.9105 16.6605 31.75 15.625 31.75H14.875C13.8395 31.75 13 30.9105 13 29.875V23.125Z" fill="#CB8CFF"/>
</g>
</g>
</g>
<rect x="0.22449" y="0.22449" width="43.551" height="43.551" rx="8.7551" stroke="black" stroke-opacity="0.05" stroke-width="0.44898"/>
</g>
<defs>
<filter id="filter0_ii_0_1261" x="0" y="0" width="44" height="44" filterUnits="userSpaceOnUse" color-interpolation-filters="sRGB">
<feFlood flood-opacity="0" result="BackgroundImageFix"/>
<feBlend mode="normal" in="SourceGraphic" in2="BackgroundImageFix" result="shape"/>
<feColorMatrix in="SourceAlpha" type="matrix" values="0 0 0 0 0 0 0 0 0 0 0 0 0 0 0 0 0 0 127 0" result="hardAlpha"/>
<feOffset/>
<feGaussianBlur stdDeviation="1.57143"/>
<feComposite in2="hardAlpha" operator="arithmetic" k2="-1" k3="1"/>
<feColorMatrix type="matrix" values="0 0 0 0 1 0 0 0 0 1 0 0 0 0 1 0 0 0 1 0"/>
<feBlend mode="normal" in2="shape" result="effect1_innerShadow_0_1261"/>
<feColorMatrix in="SourceAlpha" type="matrix" values="0 0 0 0 0 0 0 0 0 0 0 0 0 0 0 0 0 0 127 0" result="hardAlpha"/>
<feOffset/>
<feGaussianBlur stdDeviation="1.12245"/>
<feComposite in2="hardAlpha" operator="arithmetic" k2="-1" k3="1"/>
<feColorMatrix type="matrix" values="0 0 0 0 1 0 0 0 0 1 0 0 0 0 1 0 0 0 1 0"/>
<feBlend mode="normal" in2="effect1_innerShadow_0_1261" result="effect2_innerShadow_0_1261"/>
</filter>
<filter id="filter1_f_0_1261" x="-17.5102" y="-3.59065" width="66.898" height="66.449" filterUnits="userSpaceOnUse" color-interpolation-filters="sRGB">
<feFlood flood-opacity="0" result="BackgroundImageFix"/>
<feBlend mode="normal" in="SourceGraphic" in2="BackgroundImageFix" result="shape"/>
<feGaussianBlur stdDeviation="13.4694" result="effect1_foregroundBlur_0_1261"/>
</filter>
<filter id="filter2_f_0_1261" x="2.24431" y="-15.7143" width="57.9184" height="57.4694" filterUnits="userSpaceOnUse" color-interpolation-filters="sRGB">
<feFlood flood-opacity="0" result="BackgroundImageFix"/>
<feBlend mode="normal" in="SourceGraphic" in2="BackgroundImageFix" result="shape"/>
<feGaussianBlur stdDeviation="11.2245" result="effect1_foregroundBlur_0_1261"/>
</filter>
<clipPath id="clip0_0_1261">
<rect width="44" height="44" rx="8.97959" fill="white"/>
</clipPath>
</defs>
</svg>
